<?xml version="1.0" encoding="UTF-8"?>
<svg version="1.1" xmlns="http://www.w3.org/2000/svg" width="32" height="32">
<path d="M0 0 C0.90298828 -0.02900391 1.80597656 -0.05800781 2.73632812 -0.08789062 C7.06892182 -0.12927469 9.5020709 -0.10990548 13.26171875 2.20703125 C17.12813421 6.43420758 16.44205557 10.64345718 16.5 16.125 C16.52900391 17.02798828 16.55800781 17.93097656 16.58789062 18.86132812 C16.62927469 23.19392182 16.60990548 25.6270709 14.29296875 29.38671875 C10.06579242 33.25313421 5.85654282 32.56705557 0.375 32.625 C-0.97948242 32.66850586 -0.97948242 32.66850586 -2.36132812 32.71289062 C-6.69392182 32.75427469 -9.1270709 32.73490548 -12.88671875 30.41796875 C-16.75313421 26.19079242 -16.06705557 21.98154282 -16.125 16.5 C-16.15400391 15.59701172 -16.18300781 14.69402344 -16.21289062 13.76367188 C-16.25427469 9.43107818 -16.23490548 6.9979291 -13.91796875 3.23828125 C-9.69079242 -0.62813421 -5.48154282 0.05794443 0 0 Z M-11.8125 4.3125 C-15.88080748 9.60129973 -15.44152919 15.94357945 -14.8125 22.3125 C-13.5744778 26.23290365 -12.60274293 27.70462082 -9.375 30.1875 C-3.01676628 32.19536328 3.39176628 32.19536328 9.75 30.1875 C12.9466491 27.72853916 13.94460791 26.1792754 15.1875 22.3125 C15.90257444 15.72785617 15.74110707 9.9982713 12.1875 4.3125 C5.94584809 -0.64881306 -5.52673473 -0.52270406 -11.8125 4.3125 Z " fill="#2F2F2F" transform="translate(15.8125,-0.3125)"/>
<path d="M0 0 C1.4540625 0.0309375 1.4540625 0.0309375 2.9375 0.0625 C2.9375 1.3825 2.9375 2.7025 2.9375 4.0625 C1.6175 3.7325 0.2975 3.4025 -1.0625 3.0625 C-1.7225 4.3825 -2.3825 5.7025 -3.0625 7.0625 C-2.0725 7.3925 -1.0825 7.7225 -0.0625 8.0625 C-0.0625 8.7225 -0.0625 9.3825 -0.0625 10.0625 C-1.7125 10.0625 -3.3625 10.0625 -5.0625 10.0625 C-5.124375 10.8875 -5.18625 11.7125 -5.25 12.5625 C-6.2846946 17.01964595 -7.90035858 20.6995877 -11.0625 24.0625 C-14.375 24.5625 -14.375 24.5625 -17.0625 24.0625 C-17.0625 22.7425 -17.0625 21.4225 -17.0625 20.0625 C-15.7425 20.0625 -14.4225 20.0625 -13.0625 20.0625 C-12.0725 18.0825 -11.0825 16.1025 -10.0625 14.0625 C-10.7225 14.0625 -11.3825 14.0625 -12.0625 14.0625 C-11.25 11.125 -11.25 11.125 -10.0625 8.0625 C-9.0725 7.7325 -8.0825 7.4025 -7.0625 7.0625 C-5.9974985 5.09634339 -4.99416826 3.09523074 -4.0625 1.0625 C-3.0625 0.0625 -3.0625 0.0625 0 0 Z M-9.0625 10.0625 C-8.0625 12.0625 -8.0625 12.0625 -8.0625 12.0625 Z M-10.0625 12.0625 C-9.0625 14.0625 -9.0625 14.0625 -9.0625 14.0625 Z " fill="#2E2E2E" transform="translate(23.0625,3.9375)"/>
</svg>
